<svg width="105" height="44" viewBox="0 0 105 44" fill="none" xmlns="http://www.w3.org/2000/svg">
<path d="M2.56097 33.5246H40.9756" stroke="black"/>
<path d="M0 20.9599H38.4146" stroke="black"/>
<path d="M7.68292 11.1874H46.0976" stroke="black"/>
<mask id="path-4-inside-1" fill="white">
<path d="M61.4634 34.9207C61.4634 36.0207 61.2647 37.1099 60.8786 38.1262C60.4925 39.1425 59.9266 40.0659 59.2131 40.8437C58.4997 41.6216 57.6528 42.2386 56.7206 42.6595C55.7885 43.0805 54.7894 43.2971 53.7805 43.2971C52.7716 43.2971 51.7725 43.0805 50.8404 42.6595C49.9082 42.2386 49.0613 41.6216 48.3478 40.8437C47.6344 40.0659 47.0685 39.1425 46.6824 38.1262C46.2963 37.1099 46.0976 36.0207 46.0976 34.9207L53.7805 34.9207H61.4634Z"/>
</mask>
<path d="M61.4634 34.9207C61.4634 36.0207 61.2647 37.1099 60.8786 38.1262C60.4925 39.1425 59.9266 40.0659 59.2131 40.8437C58.4997 41.6216 57.6528 42.2386 56.7206 42.6595C55.7885 43.0805 54.7894 43.2971 53.7805 43.2971C52.7716 43.2971 51.7725 43.0805 50.8404 42.6595C49.9082 42.2386 49.0613 41.6216 48.3478 40.8437C47.6344 40.0659 47.0685 39.1425 46.6824 38.1262C46.2963 37.1099 46.0976 36.0207 46.0976 34.9207L53.7805 34.9207H61.4634Z" fill="black" stroke="black" stroke-width="2" mask="url(#path-4-inside-1)"/>
<path d="M46.0976 35.6187C42 29.476 46.5244 17.237 49.2988 11.8854C50.5792 9.17448 67.2256 7.69719 67.8659 12.5835C68.378 16.4925 69.7866 23.9848 70.4268 27.2423C72.561 27.4749 77.3415 27.6611 79.3902 26.5442C81.9512 25.1481 83.2317 11.8854 85.7927 10.4893C88.3537 9.09328 90.2744 9.79129 90.2744 6.99913C90.2744 4.20698 88.3537 -1.37733 91.5549 2.11287C94.7561 5.60306 96.0366 15.3756 99.2378 17.4697C101.799 19.145 100.305 20.9599 99.2378 21.6579C97.9573 21.1926 94.3719 20.8203 90.2744 23.054C85.1524 25.8462 87.0732 35.6187 79.3902 35.6187H46.0976Z" fill="#3CB6BE" stroke="black"/>
<path d="M104.5 34.9207C104.5 39.3123 101.244 42.7971 97.3171 42.7971C93.3899 42.7971 90.1341 39.3123 90.1341 34.9207C90.1341 30.5291 93.3899 27.0442 97.3171 27.0442C101.244 27.0442 104.5 30.5291 104.5 34.9207Z" fill="black" stroke="black"/>
</svg>
