<svg width="46" height="30" viewBox="0 0 46 30" fill="none" xmlns="http://www.w3.org/2000/svg">
<path d="M19.9468 10.1108C19.9468 11.3315 19.6685 12.3105 19.1118 13.0479C18.5601 13.7803 17.813 14.1465 16.8706 14.1465C16.0698 14.1465 15.4229 13.8682 14.9297 13.3115V17.0469H12.813V6.0752H14.7759L14.8491 6.85156C15.3618 6.23633 16.0308 5.92871 16.856 5.92871C17.8325 5.92871 18.5918 6.29004 19.1338 7.0127C19.6758 7.73535 19.9468 8.73145 19.9468 10.001V10.1108ZM17.8301 9.95703C17.8301 9.21973 17.6982 8.65088 17.4346 8.25049C17.1758 7.8501 16.7974 7.6499 16.2993 7.6499C15.6353 7.6499 15.1787 7.90381 14.9297 8.41162V11.6562C15.1885 12.1787 15.6499 12.4399 16.314 12.4399C17.3247 12.4399 17.8301 11.6123 17.8301 9.95703ZM23.499 14H21.375V6.0752H23.499V14ZM21.2505 4.02441C21.2505 3.70703 21.3555 3.4458 21.5654 3.24072C21.7803 3.03564 22.0708 2.93311 22.437 2.93311C22.7983 2.93311 23.0864 3.03564 23.3013 3.24072C23.5161 3.4458 23.6235 3.70703 23.6235 4.02441C23.6235 4.34668 23.5137 4.61035 23.2939 4.81543C23.0791 5.02051 22.7935 5.12305 22.437 5.12305C22.0806 5.12305 21.7925 5.02051 21.5728 4.81543C21.3579 4.61035 21.2505 4.34668 21.2505 4.02441ZM27.7837 4.12695V6.0752H29.1387V7.62793H27.7837V11.583C27.7837 11.876 27.8398 12.0859 27.9521 12.2129C28.0645 12.3398 28.2793 12.4033 28.5967 12.4033C28.8311 12.4033 29.0386 12.3862 29.2192 12.3521V13.9561C28.8042 14.083 28.377 14.1465 27.9375 14.1465C26.4531 14.1465 25.6963 13.397 25.667 11.8979V7.62793H24.5098V6.0752H25.667V4.12695H27.7837ZM34.6099 11.8101C34.6099 11.5513 34.4805 11.3486 34.2217 11.2021C33.9678 11.0508 33.5576 10.9165 32.9912 10.7993C31.1064 10.4038 30.1641 9.60303 30.1641 8.39697C30.1641 7.69385 30.4546 7.10791 31.0356 6.63916C31.6216 6.16553 32.3857 5.92871 33.3281 5.92871C34.334 5.92871 35.1372 6.16553 35.7378 6.63916C36.3433 7.11279 36.646 7.72803 36.646 8.48486H34.5293C34.5293 8.18213 34.4316 7.93311 34.2363 7.73779C34.041 7.5376 33.7358 7.4375 33.3208 7.4375C32.9644 7.4375 32.6885 7.51807 32.4932 7.6792C32.2979 7.84033 32.2002 8.04541 32.2002 8.29443C32.2002 8.52881 32.3101 8.71924 32.5298 8.86572C32.7544 9.00732 33.1304 9.13184 33.6577 9.23926C34.1851 9.3418 34.6294 9.45898 34.9907 9.59082C36.1089 10.001 36.668 10.7114 36.668 11.7222C36.668 12.4448 36.3579 13.0308 35.7378 13.48C35.1177 13.9243 34.3169 14.1465 33.3354 14.1465C32.6714 14.1465 32.0806 14.0293 31.563 13.7949C31.0503 13.5557 30.6475 13.231 30.3545 12.8208C30.0615 12.4058 29.915 11.959 29.915 11.4805H31.9219C31.9414 11.8564 32.0806 12.1445 32.3394 12.3447C32.5981 12.5449 32.9448 12.645 33.3794 12.645C33.7847 12.645 34.0898 12.5693 34.2949 12.418C34.5049 12.2617 34.6099 12.0591 34.6099 11.8101ZM42.6299 14C42.5322 13.8096 42.4614 13.5728 42.4175 13.2896C41.9048 13.8608 41.2383 14.1465 40.418 14.1465C39.6416 14.1465 38.9971 13.9219 38.4844 13.4727C37.9766 13.0234 37.7227 12.457 37.7227 11.7734C37.7227 10.9336 38.0327 10.2891 38.6528 9.83984C39.2778 9.39062 40.1787 9.16357 41.3555 9.15869H42.3296V8.70459C42.3296 8.33838 42.2344 8.04541 42.0439 7.82568C41.8584 7.60596 41.563 7.49609 41.1577 7.49609C40.8013 7.49609 40.5205 7.58154 40.3154 7.75244C40.1152 7.92334 40.0151 8.15771 40.0151 8.45557H37.8984C37.8984 7.99658 38.04 7.57178 38.3232 7.18115C38.6064 6.79053 39.0068 6.48535 39.5244 6.26562C40.042 6.04102 40.623 5.92871 41.2676 5.92871C42.2441 5.92871 43.0181 6.17529 43.5894 6.66846C44.1655 7.15674 44.4536 7.84521 44.4536 8.73389V12.1689C44.4585 12.9209 44.5635 13.4897 44.7686 13.8755V14H42.6299ZM40.8794 12.5278C41.1919 12.5278 41.48 12.4595 41.7437 12.3228C42.0073 12.1812 42.2026 11.9932 42.3296 11.7588V10.3965H41.5386C40.479 10.3965 39.915 10.7627 39.8467 11.4951L39.8394 11.6196C39.8394 11.8833 39.9321 12.1006 40.1177 12.2715C40.3032 12.4424 40.5571 12.5278 40.8794 12.5278Z" fill="#875353"/>
<mask id="path-2-inside-1" fill="white">
<path d="M25 17.5C25 19.9723 24.2669 22.389 22.8934 24.4446C21.5199 26.5002 19.5676 28.1024 17.2835 29.0485C14.9995 29.9946 12.4861 30.2421 10.0614 29.7598C7.63661 29.2775 5.40932 28.087 3.66117 26.3388C1.91301 24.5907 0.722499 22.3634 0.240184 19.9386C-0.242131 17.5139 0.00541045 15.0005 0.951506 12.7165C1.8976 10.4324 3.49976 8.48015 5.55537 7.10663C7.61099 5.73311 10.0277 5 12.5 5V17.5H25Z"/>
</mask>
<path d="M25 17.5C25 19.9723 24.2669 22.389 22.8934 24.4446C21.5199 26.5002 19.5676 28.1024 17.2835 29.0485C14.9995 29.9946 12.4861 30.2421 10.0614 29.7598C7.63661 29.2775 5.40932 28.087 3.66117 26.3388C1.91301 24.5907 0.722499 22.3634 0.240184 19.9386C-0.242131 17.5139 0.00541045 15.0005 0.951506 12.7165C1.8976 10.4324 3.49976 8.48015 5.55537 7.10663C7.61099 5.73311 10.0277 5 12.5 5V17.5H25Z" fill="#DDB272" stroke="#B9935A" stroke-width="2" mask="url(#path-2-inside-1)"/>
<path d="M6.50001 8C8.50001 6.8 9.66667 4.66667 11 5.5L12.5 5L12.5 17.5L24.5 17.5C24.6667 18.1667 21.4 21.4 21 23C20.5 25 18.5 26.5 16.5 27C14.5 27.5 12 28 10 28C8.00001 28 4 25 3.5 22.5C3 20 2.50001 19.5 2.00001 17C1.50001 14.5 1 15 3 13C4.58114 11.4189 4.00001 9.5 6.50001 8Z" fill="#FFEDBE"/>
<circle cx="11.5" cy="26.5" r="1.5" fill="#875353"/>
<circle cx="18.5" cy="22.5" r="1.5" fill="#875353"/>
<circle cx="13.5" cy="20.5" r="1.5" fill="#875353"/>
<circle cx="10.5" cy="14.5" r="1.5" fill="#875353"/>
<circle cx="6.5" cy="11.5" r="1.5" fill="#875353"/>
<circle cx="5.5" cy="16.5" r="1.5" fill="#875353"/>
<circle cx="5.5" cy="22.5" r="1.5" fill="#875353"/>
<rect x="16" y="15" width="29" height="2" fill="#875353"/>
</svg>
